<?xml version="1.0" encoding="UTF-8"?>
<!DOCTYPE svg PUBLIC "-//W3C//DTD SVG 1.1//EN" "http://www.w3.org/Graphics/SVG/1.1/DTD/svg11.dtd">
<!-- Creator: CorelDRAW 2020 (64-Bit) -->
<svg xmlns="http://www.w3.org/2000/svg" xml:space="preserve" width="12.1918mm" height="12.1918mm" version="1.1" style="shape-rendering:geometricPrecision; text-rendering:geometricPrecision; image-rendering:optimizeQuality; fill-rule:evenodd; clip-rule:evenodd"
viewBox="0 0 1219.18 1219.18"
 xmlns:xlink="http://www.w3.org/1999/xlink"
 xmlns:xodm="http://www.corel.com/coreldraw/odm/2003">
 <defs>
  <style type="text/css">
   <![CDATA[
    .fil0 {fill:#F8F0E8}
    .fil1 {fill:#896A36}
    .fil2 {fill:#896A36;fill-rule:nonzero}
   ]]>
  </style>
 </defs>
 <g id="Layer_x0020_1">
  <metadata id="CorelCorpID_0Corel-Layer"/>
  <g id="_1186709727136">
   <path class="fil0" d="M91.58 -0.01l1036.02 0c50.38,0 91.59,41.21 91.59,91.59l0 1036.02c0,50.38 -41.21,91.59 -91.59,91.59l-1036.02 0c-50.38,0 -91.59,-41.21 -91.59,-91.59l0 -1036.02c0,-50.38 41.21,-91.59 91.59,-91.59z"/>
   <g>
    <path class="fil1" d="M588.08 307.97c8.3,-6 14.65,-12.53 25.73,-17.81 62.02,45.43 94.01,-2.65 162.43,-6.43 50.13,-2.76 105.67,1.49 157.85,0.06 7.52,46.25 13.41,95.35 -11.87,133.38 -20.19,30.58 -15.51,48.57 -11.01,51.47 70.17,35.42 123.8,99.07 155.98,142.26 -20.84,35.52 -57.68,91.61 -95.88,79.6 -20.26,-50.11 15.09,-28.89 29.17,-91.56 -14.48,-12.23 -47.22,-50.55 -89.27,-76.91 -15.89,34.35 -6.51,56.08 21.33,76.43 -8.13,38.38 -37.67,50.37 -21.33,86.79 13.17,30.44 43.59,83.04 21.91,255.78l-126.33 -11.73c3.61,-7.45 6.45,-13.37 8.9,-18.09 -20.14,-4.21 -41.38,-4.36 -63.8,0 -24.29,48.98 -48.9,94.53 -145.19,159.67 -57.46,-55.88 -72.66,-53.63 -82.64,-99.32 55.75,-14.41 35.2,6.37 92.84,33.3 24.09,-25.02 59.77,-56.92 83.92,-93.65 -13.39,-4.51 -45.63,-5.62 -60.09,0 -7.05,8.48 -15.19,17.74 -24.59,27.97 -21.38,-13.09 -33.79,-22.14 -41.58,-27.97 -10.52,-6.74 -20.49,-6.72 -29.91,0 -9.73,5.42 -26.21,12.97 -56.69,21.33 -52.41,14.39 -145.33,7.47 -202.71,5.74 -3.89,-43.31 -12.27,-95.72 13.43,-130.04 8.43,-9.6 9.29,-32.3 9.29,-52.71 -70.06,-34.28 -129.45,-101.83 -154.4,-144.63 17.09,-23.66 65,-75.63 91.41,-89.62 27.67,55.17 3.94,46.83 -25.53,89.62 17.63,31.02 47.05,70.01 88.52,94.14 6.08,-14.79 6.48,-35.25 0,-62.61 -7.04,-5.42 -14.55,-11.46 -22.67,-18.21 9.65,-25.5 17.24,-38.46 22.67,-45.24 0,-41.35 -7.47,-50.43 -18.49,-90.12 -14.48,-52.19 -11.3,-151.87 -1.32,-204.75l125.6 2.52c-3,8.7 -5.32,15.7 -7.31,21.34 10.45,7.17 35.94,12.05 57.47,0 5.82,-11.31 15.48,-25.81 31.28,-44.75 30.64,-36.68 78.47,-88.64 117.72,-109.28 35.16,26.7 66.64,52.62 85.1,99.07 -58.4,13.33 -44.07,-6.46 -91.38,-35.21 -40.66,35.08 -69.56,64.24 -88.15,90.17 22.1,6.3 45.2,6.83 69.59,0zm546.05 302.93c-155.69,-227.75 -150.84,-62.1 -147.33,-370.95 -74.94,-10.02 -191.84,13.04 -240.24,-24.04 -39.01,-29.88 -88.08,-94.48 -130.48,-130.83 -36.58,17.11 -126.34,106.62 -158.16,147.2l-221.71 8.31c-5.05,76.84 14.46,190.2 -26.39,241.5 -34.61,43.47 -90.84,74.74 -124.78,128.81 27.95,61.83 90.65,83.79 128.96,137.72 35.35,49.75 19.31,162.18 19.88,234.94 74.64,11.82 185.31,-15.74 238.76,23.88 45.52,33.74 78.6,90.19 131.18,126.66 64.28,-40.4 90.28,-83.7 145.46,-125.37 50.73,-38.3 163.57,-14.54 238.42,-25.1 2.93,-367.13 13.83,-146.18 146.43,-372.73z"/>
    <path class="fil2" d="M720.46 520.38c0,34.84 -18.04,57.23 -34.84,69.68 -6.81,4.33 -35.19,13.59 -66.73,13.68 -12.93,1.28 -14,15.69 0,17.47 11.23,0.51 23.47,4.55 27.54,8.04 4.98,3.11 14.31,16.8 19.91,26.13 26.12,44.79 57.85,95.8 75.27,119.44 13.06,18.04 37.33,40.44 93.94,40.44 8.09,0 31.73,-1.25 41.68,-4.98 4.35,-1.24 9.96,-5.6 9.96,-9.33 0,-2.49 -4.98,-7.46 -11.2,-8.71 -18.67,-3.73 -36.71,-11.2 -53.5,-31.1 -31.11,-36.09 -82.12,-121.94 -93.94,-146.82 -1.25,-2.49 -1.87,-7.47 1.24,-8.71 8.71,-4.35 21.78,-11.2 24.26,-13.06 27.38,-21.78 43.55,-46.04 43.55,-79.64 0,-28.61 -14.46,-58.29 -33.59,-74.03 -30.02,-24.69 -80.75,-33.79 -109.36,-33.79 -35.2,0 -84.02,-1.43 -118.47,-0.31 -2.03,-0.07 -4.05,-0.11 -6.05,-0.11 -49.15,0 -78.39,12.44 -98.91,29.86 -19.91,16.17 -37.95,46.03 -37.95,81.5 0,55.36 34.21,89.58 97.67,131.26 57.23,37.33 70.3,62.21 70.3,88.34 0,39.81 -36.09,62.21 -64.7,62.21 -31.73,0 -67.81,-19.29 -86.48,-57.23 -9.33,-19.29 -19.28,-34.22 -24.26,-34.22 -3.11,0 -9.95,8.71 -9.95,13.07 0,18.03 5.6,44.79 10.57,66.56 0,2.49 11.2,15.55 16.18,18.04 25.5,9.95 52.88,16.18 89.58,16.18 29.86,0 65.94,-9.34 87.1,-22.4 36.08,-21.77 54.74,-59.1 54.74,-91.45 0,-37.95 -14.93,-77.76 -91.45,-124.42 -55.99,-35.46 -83.36,-55.37 -83.36,-92.07 0,-40.44 34.21,-64.7 63.45,-64.7 19.29,0 34.84,4.98 49.78,17.42 7.46,6.22 20.52,23.64 26.74,44.17 3.12,9.33 13.07,14.93 18.05,14.93 3.73,0 5.59,-6.22 5.59,-15.55 0,-2.49 -6.22,-50.4 -6.22,-58.49 -0.13,-0.67 -0.47,-1.61 -0.95,-2.67 8.42,0.39 17.27,0.81 26.55,1.23 16.78,0.76 36.03,6.91 50.4,21.78 21.08,21.83 27.86,56.19 27.86,72.36z"/>
   </g>
  </g>
 </g>
</svg>
